<svg id="图层_1" data-name="图层 1" xmlns="http://www.w3.org/2000/svg" viewBox="0 0 583.667 114.333"><defs><style>.cls-1{fill:#db4531;}.cls-2,.cls-3{fill:#322824;}.cls-3{font-size:39.5px;font-family:SourceHanSansCN-Regular-GBpc-EUC-H, Source Han Sans CN;letter-spacing:0.085em;}</style></defs><title>导航栏 Logo+ Slogan -06</title><path class="cls-1" d="M57.445.872A56.295,56.295,0,1,0,113.74,57.167,56.358,56.358,0,0,0,57.445.872Zm17.98,49.246L78.4,40.177A5.709,5.709,0,1,1,89.34,43.452l-2.977,9.941a5.709,5.709,0,1,1-10.939-3.275Zm-48.674,0,2.977-9.941a5.709,5.709,0,0,1,10.939,3.275L37.69,53.393a5.709,5.709,0,0,1-10.939-3.275ZM92.293,89.157l-.062.09a5.145,5.145,0,0,1-5.895,1.979C72.775,86.532,64.314,78.19,58.583,66.22c-.314-.6-.71-1.48-1.1-2.385-.343.929-.67,1.753-.968,2.462C51.881,76.5,43.987,85.292,30.588,91.57a5.085,5.085,0,0,1-6.047-1.377l-.065-.078a5.116,5.116,0,0,1,1.668-7.858C51.776,69.552,52.211,47.269,52.276,22.652A5.388,5.388,0,0,1,57.7,17.278h.144A5.393,5.393,0,0,1,63.2,22.758a225.2,225.2,0,0,1-1.375,23.716,33.12,33.12,0,0,0,1.4,6.9C67.745,66.723,75.8,76.376,89.745,81.322A5.189,5.189,0,0,1,92.293,89.157Z"/><path class="cls-2" d="M304.762,49.995a1.5,1.5,0,0,1-1.5,1.5h-5.939V45.729h8.942l.016-5.827h-8.958V36.368h13.608a3.192,3.192,0,0,0,3.192-3.192h0a3.192,3.192,0,0,0-3.192-3.192H263.322a3.192,3.192,0,0,0-3.192,3.192h0a3.192,3.192,0,0,0,3.192,3.192h13.111V39.9l-8.043,0v5.83l8.043,0v5.766h-6.51l.007-9.742a3.441,3.441,0,0,0-3.438-3.443h0a3.441,3.441,0,0,0-3.444,3.427l-.054,12.124a3.386,3.386,0,0,0,3.386,3.4h12.347c-.62,1.178-1.3,2.294-1.984,3.472H262.391a3.192,3.192,0,0,0-3.192,3.192h0a3.192,3.192,0,0,0,3.192,3.192h10.136c-.915,1.25-1.83,2.441-2.73,3.557a2.546,2.546,0,0,0,1.438,4.085c3.108.69,6.136,1.421,9.1,2.153a82.731,82.731,0,0,1-16.633,2.369,3.165,3.165,0,0,0-2.919,3.738l.011.057a3.162,3.162,0,0,0,3.4,2.576c2.006-.185,4.485-.428,5.72-.576,8.577-1.028,15.481-2.592,20.9-5.251,5.526,1.622,11.926,3.649,16.549,5.317a3.577,3.577,0,0,0,4.314-1.576h0a3.578,3.578,0,0,0-1.993-5.2c-3.476-1.122-7.425-2.311-11.678-3.44a28.387,28.387,0,0,0,5.641-7.811h8.525a3.192,3.192,0,0,0,3.192-3.192h0a3.192,3.192,0,0,0-3.192-3.192H285.3a2.352,2.352,0,0,0-1.488-3.442l-.123-.03h25.068a3.386,3.386,0,0,0,3.386-3.386l.006-11.934a3.683,3.683,0,0,0-3.686-3.685h0a3.683,3.683,0,0,0-3.68,3.677ZM283.375,36.368h7.005V39.9h-7.005Zm0,9.361h7.005v5.766h-7.005Zm6.51,27.028c-3.487-.856-7.156-1.712-10.766-2.509l2.087-3.132h14.258A20.154,20.154,0,0,1,289.885,72.757Z"/><path class="cls-2" d="M352.525,59.484c.791-2.9,1.362-5.677,1.709-7.534l0-.009a158.488,158.488,0,0,0,1.2-19.131,4.088,4.088,0,0,0-4.062-4.153h-.109a4.084,4.084,0,0,0-4.112,4.074c-.049,18.661-.379,35.552-19.809,45.183a3.878,3.878,0,0,0-1.264,5.956l.049.059a3.855,3.855,0,0,0,4.583,1.044c10.157-4.759,16.141-11.422,19.656-19.158A51.248,51.248,0,0,0,352.525,59.484Z"/><path class="cls-2" d="M353.78,60.495a28.232,28.232,0,0,1-1.846,5.261c4.344,9.074,10.758,15.4,21.038,18.955a3.9,3.9,0,0,0,4.468-1.5l.047-.068a3.933,3.933,0,0,0-1.932-5.939c-10.987-3.9-17.155-11.635-20.5-22.38A52.069,52.069,0,0,1,353.78,60.495Z"/><rect class="cls-2" x="324.817" y="46.696" width="16.522" height="8.656" rx="4.328" ry="4.328" transform="translate(188.662 355.471) rotate(-73.332)"/><rect class="cls-2" x="361.714" y="46.696" width="16.522" height="8.656" rx="4.328" ry="4.328" transform="translate(214.975 390.818) rotate(-73.332)"/><rect class="cls-2" x="142.621" y="43.18" width="19.093" height="4.897" rx="2.448" ry="2.448"/><path class="cls-2" d="M165.124,80.126c2.942-.033,3.768-.6,4-3.8a2.874,2.874,0,0,1,2.872-2.671h0a2.866,2.866,0,0,1,2.844,2.558c.2,1.921.3,4.468-.366,5.944-1.475,3.278-4.114,3.609-8.851,3.609H153.9c-8.678,0-10.972-1.735-10.972-7.563v-7.43a3.75,3.75,0,0,1,3.75-3.75h0a3.75,3.75,0,0,1,3.75,3.75v7.368c0,1.737.62,1.984,4.215,1.984Z"/><path class="cls-2" d="M160.184,67.7c1.159,1.189,2.677,2.879,3.909,4.277a3.187,3.187,0,0,1-.4,4.6h0a3.185,3.185,0,0,1-4.424-.434c-1.4-1.664-3.112-3.686-3.6-4.239a3.084,3.084,0,0,1,1.056-4.856h0A3.078,3.078,0,0,1,160.184,67.7Z"/><path class="cls-2" d="M137.764,32.112a3.379,3.379,0,0,0-3.385,3.378l0,8.371c-.017,7.626-1.209,14.656-4.394,20.547a3.476,3.476,0,0,0,1.03,4.428h0a3.5,3.5,0,0,0,5.193-1.192c3.482-6.769,4.893-14.68,4.928-23.659v-3.6h0l0-4.9a3.379,3.379,0,0,0-3.373-3.38Z"/><path class="cls-2" d="M163.428,65.055h0a3.371,3.371,0,0,0,4.749.491c.758-.618,1.532-1.253,2.093-1.724A11.283,11.283,0,0,0,179.2,68.1c5.05,0,7.174-2.15,8.13-10.5.005-.046.02-.165.039-.369a2.9,2.9,0,0,0-2.849-3.163h-.053a2.9,2.9,0,0,0-2.923,2.619c-.331,3.4-.885,4.838-2.1,4.838a5.351,5.351,0,0,1-4.277-2.6,47.762,47.762,0,0,0,7.492-11.574,3.332,3.332,0,0,0-2.274-4.634h0a3.353,3.353,0,0,0-3.828,1.96,39.175,39.175,0,0,1-4.428,7.615,67.86,67.86,0,0,1-2.107-11.9h13.2a2.914,2.914,0,0,0,2.914-2.914h0a2.914,2.914,0,0,0-2.914-2.914H180.5a1.918,1.918,0,0,0-.326-2.727L176.7,29.174a2.546,2.546,0,0,0-3.452.329h0a2.546,2.546,0,0,0,.326,3.691c.616.486,1.248.988,1.718,1.369H169.65c-.046-.674-.089-1.44-.128-2.179a3.4,3.4,0,0,0-3.4-3.221h0a3.4,3.4,0,0,0-3.4,3.557c.028.589.063,1.192.1,1.843l-23.2.008V40.4L163.2,40.39A65,65,0,0,0,166.86,58c-.738.637-1.823,1.479-2.846,2.251A3.368,3.368,0,0,0,163.428,65.055ZM159.2,50.743H144.7a1.893,1.893,0,0,0-1.893,1.893v10.6a1.893,1.893,0,0,0,1.893,1.893h14.5a1.893,1.893,0,0,0,1.893-1.893v-10.6A1.893,1.893,0,0,0,159.2,50.743Zm-3.749,9.485h-6.819V55.641h6.819Z"/><rect class="cls-2" x="130.274" y="72.358" width="12.754" height="6.991" rx="3.495" ry="3.495" transform="translate(20.58 180.517) rotate(-71.076)"/><rect class="cls-2" x="176.669" y="69.352" width="6.991" height="12.754" rx="3.495" ry="3.495" transform="translate(-14.565 92.297) rotate(-27.662)"/><path class="cls-2" d="M228.117,69.314A3.688,3.688,0,0,1,231.81,73v3.869c0,1.612.434,1.86,2.728,1.86h6.881c1.488,0,2.069-.419,2.371-2.592a3.211,3.211,0,0,1,3.177-2.8h.125a3.194,3.194,0,0,1,3.172,3.449,18.085,18.085,0,0,1-.26,2.057c-.984,4.817-3.127,6.144-7.84,6.144h-8.617c-7.377,0-9.113-1.984-9.113-8V73a3.688,3.688,0,0,1,3.683-3.688Z"/><path class="cls-2" d="M224.93,69.309a16.2,16.2,0,0,0,.743-5.022V61.932a3.843,3.843,0,0,0-3.843-3.843h0a3.843,3.843,0,0,0-3.843,3.843V64.1c0,4.439-1.478,10.357-17.783,14.934a3.3,3.3,0,0,0-1.917,4.924l.038.062a3.3,3.3,0,0,0,3.714,1.424c14.3-4.139,20.16-9.537,22.394-14.712"/><path class="cls-2" d="M206.6,49.159h0a3.7,3.7,0,0,1,3.7,3.7l0,15.1a3.7,3.7,0,0,1-3.7,3.7h-.027a3.7,3.7,0,0,1-3.7-3.71l.029-15.1A3.7,3.7,0,0,1,206.6,49.159Z"/><path class="cls-2" d="M199.208,36.591h-.014a3.711,3.711,0,0,0-3.709,3.711v8.245a3.711,3.711,0,0,0,3.715,3.711h0a3.711,3.711,0,0,0,3.708-3.706l.015-8.245A3.711,3.711,0,0,0,199.208,36.591Z"/><path class="cls-2" d="M244.957,36.591h-.014a3.711,3.711,0,0,0-3.709,3.711v8.245a3.711,3.711,0,0,0,3.715,3.711h0a3.711,3.711,0,0,0,3.708-3.706l.015-8.245A3.711,3.711,0,0,0,244.957,36.591Z"/><polygon class="cls-2" points="241.8 38.708 241.799 45.133 201.416 45.135 201.416 38.684 241.8 38.708"/><path class="cls-2" d="M236.542,49.162H214.864a3.162,3.162,0,0,0-3.162,3.162h0a3.162,3.162,0,0,0,3.161,3.162h17.377a1.12,1.12,0,0,1,1.12,1.12v11.5a3.869,3.869,0,0,0,3.869,3.869h0A3.869,3.869,0,0,0,241.1,68.1l-.039-14.429A4.517,4.517,0,0,0,236.542,49.162Z"/><rect class="cls-2" x="203.117" y="29.511" width="7.003" height="11.184" rx="3.501" ry="3.501" transform="translate(14.417 118.662) rotate(-33.139)"/><rect class="cls-2" x="218.426" y="28.422" width="7.003" height="10.926" rx="3.501" ry="3.501" transform="translate(3.645 86.351) rotate(-22.196)"/><rect class="cls-2" x="230.698" y="31.939" width="13.599" height="7.003" rx="3.501" ry="3.501" transform="translate(88.057 223.399) rotate(-60)"/><path class="cls-2" d="M355.662,56.855a18.055,18.055,0,0,1-1.283-6.294,36.951,36.951,0,0,1-.611-4.419L349.993,61.09s1.24,3.192,1.937,4.519,2.224,3.75,2.224,3.75Z"/><text class="cls-3" transform="translate(414.333 81.043)">的营销课</text></svg>