<svg id="图层_1" data-name="图层 1" xmlns="http://www.w3.org/2000/svg" viewBox="0 0 114.534 114.333"><defs><style>.cls-1{fill:#db4531;}</style></defs><title>输出</title><path class="cls-1" d="M57.267.872a56.295,56.295,0,1,0,56.295,56.295A56.358,56.358,0,0,0,57.267.872Zm17.98,49.246,2.977-9.941a5.709,5.709,0,1,1,10.939,3.275l-2.977,9.941a5.709,5.709,0,1,1-10.939-3.275Zm-48.674,0,2.977-9.941a5.709,5.709,0,0,1,10.939,3.275l-2.977,9.941a5.709,5.709,0,0,1-10.939-3.275ZM92.115,89.157l-.062.09a5.145,5.145,0,0,1-5.895,1.979C72.6,86.532,64.136,78.19,58.405,66.22c-.314-.6-.71-1.48-1.1-2.385-.343.929-.67,1.753-.968,2.462C51.7,76.5,43.809,85.292,30.41,91.57a5.085,5.085,0,0,1-6.047-1.377l-.065-.078a5.116,5.116,0,0,1,1.668-7.858C51.6,69.552,52.033,47.269,52.1,22.652a5.388,5.388,0,0,1,5.424-5.374h.144a5.393,5.393,0,0,1,5.359,5.479,225.2,225.2,0,0,1-1.375,23.716,33.12,33.12,0,0,0,1.4,6.9c4.522,13.354,12.572,23.007,26.521,27.953A5.189,5.189,0,0,1,92.115,89.157Z"/></svg>