<svg id="图层_1" data-name="图层 1" xmlns="http://www.w3.org/2000/svg" viewBox="0 0 516.667 66"><defs><style>.cls-1{fill:#322825;}.cls-2{fill:#e7403c;}.cls-3{fill:none;stroke:#322825;stroke-miterlimit:10;stroke-width:1.058px;}.cls-4{fill:#231815;}.cls-5{fill:#e6e254;}.cls-6{fill:#e7568d;}.cls-7{fill:#96c145;}.cls-8{fill:#f3bc41;}.cls-9{fill:#8965a7;}.cls-10{fill:#21c1a8;}.cls-11{fill:#f3735c;}.cls-12{fill:#006cb4;}.cls-13{fill:#139dc0;}</style></defs><title>Logo 关联</title><path class="cls-1" d="M290.775,52.243a42.572,42.572,0,0,0,4.875-9.293l5.382,1.879c-.851,1.964-1.85,4.329-2.874,6.456C295.228,51.775,290.775,52.243,290.775,52.243Z"/><rect class="cls-1" x="301.54" y="20.862" width="15.64" height="4.011"/><path class="cls-1" d="M319.972,51.125c2.539,0,2.945-.711,3.25-5.789a17,17,0,0,0,5.535,1.93c-.762,6.8-2.437,8.48-8.378,8.48h-9.6c-7.108,0-8.987-1.421-8.987-6.195V42.239h6.144V49.5c0,1.422.508,1.625,3.453,1.625Z"/><path class="cls-1" d="M314.691,39.7a85.987,85.987,0,0,1,6.449,7.058s-6.539.024-6.863.029c-1.335-1.629-2.993-3.458-4.359-4.954Z"/><path class="cls-1" d="M326.98,43.711l5.332-1.675a85.238,85.238,0,0,1,5.484,9.749s-3.586-.394-6.886-.629C330.91,51.156,329.28,47.8,326.98,43.711Z"/><path class="cls-1" d="M300.323,12.884l-5.534-1.733,0,10.27c0,5.077-.406,12.186-4.215,17.264a22,22,0,0,1,4.468,3.656c4.418-5.789,5.281-14.674,5.281-20.819V18.577h0Z"/><path class="cls-1" d="M333.581,29.748c-.254,4.367-.66,6.144-1.879,6.144a4.383,4.383,0,0,1-3.5-2.132,40.012,40.012,0,0,0,7.413-12.542l-5.433-1.27a31.617,31.617,0,0,1-4.469,8.378,55.586,55.586,0,0,1-1.726-9.749h13.2V13.8h-4.621l1.321-1.015a40.772,40.772,0,0,0-5.179-3.96l-3.554,2.488c.965.711,2.082,1.625,3.148,2.487h-4.621c-.029-.862-.034-1.667-.04-2.577-2.59-.846-5.7-1.848-5.7-1.848,0,1.625.052,2.851.153,4.424l-16.6.006v4.773l16.908-.006a53.243,53.243,0,0,0,3,14.42,30.931,30.931,0,0,1-4.722,3.4V27.057h-14.98v11.78h14.98V37.06a33.686,33.686,0,0,1,3.554,3.656,41.991,41.991,0,0,0,3.96-2.945,9.242,9.242,0,0,0,7.312,3.5c4.215,0,5.941-1.828,6.7-8.988A12.966,12.966,0,0,1,333.581,29.748Zm-21.53,5.078h-5.585V31.069h5.585Z"/><path class="cls-1" d="M389.008,46.149c-.2,3.809-.508,4.418-2.133,4.418h-5.636c-1.878,0-2.234-.2-2.234-1.524V42.849h-5.636a13.268,13.268,0,0,0,.609-4.113V33.658h-6.3v4.925c0,4.011-1.473,9.5-19.093,13.354a22.477,22.477,0,0,1,4.062,4.671c13.151-3.452,18.381-8.124,20.311-12.593v5.129c0,4.925,1.422,6.55,7.464,6.55h7.058c4.57,0,6.144-1.523,6.754-7.515A18.415,18.415,0,0,1,389.008,46.149Z"/><polygon class="cls-1" points="361.387 26.346 355.342 25.288 355.342 23.046 355.344 23.046 355.344 17.755 355.344 17.755 355.344 16.785 349.25 14.82 349.249 28.885 355.291 28.885 355.291 44.778 361.385 44.778 361.387 26.346"/><path class="cls-1" d="M386.572,15.688v2.095l-1.626-.018c1.523-1.93,3.148-4.113,4.672-6.348l-6.5-1.93a54.321,54.321,0,0,1-4.672,8.277h-7.109l3.859-1.422a38.408,38.408,0,0,0-4.164-7.21l-5.281,1.778a40.655,40.655,0,0,1,3.605,6.855h-8.784l2.387-1.118a33.063,33.063,0,0,0-4.976-6.7l-5.23,2.285a33.946,33.946,0,0,1,4.011,5.535h-.253v5.284l30.059,0v3.3H362.534v5.179h17.74V45.033h6.347V28.885h6.3l.017-11.129Z"/><path class="cls-1" d="M450.731,41.275v-5.23H426.1c.406-.761.864-1.473,1.219-2.234l-2.539-.609H448.09V18.983l-6.03-1.226v1.226h-6.107V16.089h13.762v-5.23H405.488v5.23h13.354v2.894l-4.184,0v4.775h4.184v4.723H413.51l0-10.232-5.622-1.8L407.824,33.2h12.9c-.508.965-1.067,1.879-1.625,2.844H404.726v5.23h10.918a70.2,70.2,0,0,1-4.469,5.535c3.758.761,7.363,1.625,10.867,2.488a75.535,75.535,0,0,1-16.553,2.081,16.585,16.585,0,0,1,2.285,5.179c9.749-.813,17.264-2.133,22.849-4.875,5.535,1.625,10.409,3.2,14.116,4.671l4.773-4.722c-3.554-1.219-8.023-2.64-13-3.96a23.252,23.252,0,0,0,4.621-6.4ZM435.954,23.756h6.094v4.723h-6.094Zm-11.425-7.668h5.738v2.894h-5.738Zm0,7.668h5.738v4.723h-5.738ZM429.861,45.9c-2.894-.711-5.942-1.421-8.937-2.081a25.151,25.151,0,0,0,1.828-2.539h11.679A16.509,16.509,0,0,1,429.861,45.9Z"/><path class="cls-2" d="M474.625,20.963l-5.991-1.878A35.208,35.208,0,0,1,462.743,33s6.3-.786,8.346-1.105A55.984,55.984,0,0,0,474.625,20.963Z"/><path class="cls-2" d="M506.158,21.573l-6.651-2.487a76.984,76.984,0,0,1-5.637,14.37s5.486-.72,7.076-.932C502.675,29.242,504.554,25.229,506.158,21.573Z"/><path class="cls-2" d="M485.312,34.71c.648-2.38,1.116-4.651,1.4-6.173l0-.008a123.634,123.634,0,0,0,1-17.116c-2.064-.591-6.788-1.977-6.788-1.977-.1,17.722.965,33.97-19.955,41.993a18.073,18.073,0,0,1,4.265,5.129c9.678-3.938,15.188-9.782,18.313-16.662A41.991,41.991,0,0,0,485.312,34.71Z"/><path class="cls-2" d="M486.34,35.538a23.132,23.132,0,0,1-1.512,4.311c3.875,8.094,9.759,13.516,19.553,16.253a22.369,22.369,0,0,1,3.96-5.688c-11.651-2.595-17.819-9.445-20.958-19.523A42.663,42.663,0,0,1,486.34,35.538Z"/><rect class="cls-3" x="288.213" y="6.491" width="53.018" height="53.018"/><rect class="cls-3" x="344.929" y="6.491" width="53.018" height="53.018"/><rect class="cls-3" x="401.646" y="6.491" width="53.018" height="53.018"/><rect class="cls-3" x="458.363" y="6.491" width="53.018" height="53.018"/><path class="cls-1" d="M232.235,34.593q16.253.12,32.5-.386c3.21-.1,3.224-5.1,0-5q-16.246.507-32.5.386c-3.218-.024-3.221,4.976,0,5Z"/><path class="cls-1" d="M256.238,25.662l12.215,7.451-.506-3.926c-3.978,3.729-7.816,7.952-12.243,11.151-2.584,1.867-.091,6.207,2.524,4.317,4.8-3.466,8.948-7.9,13.255-11.933a2.526,2.526,0,0,0-.506-3.926l-12.215-7.451c-2.754-1.68-5.27,2.642-2.524,4.317Z"/><path class="cls-4" d="M4.966,22.719V17.782a2.9,2.9,0,0,0,1.785-.815,5.562,5.562,0,0,0,1.057-2.783l.638-4.071H13.5l-.374,2.7H29.337v4.622h-6.91v4.7H17.482v-4.7H12.171A9.043,9.043,0,0,1,9.537,21.17,9.562,9.562,0,0,1,4.966,22.719Zm22.2,9.4v-4.2H5.739V23.374H48.795a5.754,5.754,0,0,1,4.147,1.237A4.483,4.483,0,0,1,54,27.917v3.416q0,5.33-4.7,5.333H32.078V41h16.93a5.452,5.452,0,0,1,3.9,1.153A4.689,4.689,0,0,1,54,45.595v4.414a4.825,4.825,0,0,1-1.119,3.545q-1.278,1.282-4.912,1.282H45.921V50.3h1.49a2.089,2.089,0,0,0,1.622-.475,2.474,2.474,0,0,0,.4-1.6V47.169a1.875,1.875,0,0,0-.425-1.366,2.417,2.417,0,0,0-1.6-.34H32.078v9.373H27.161V45.463H13.847A16.245,16.245,0,0,1,11.612,51.4a7.685,7.685,0,0,1-6.379,3.281v-4.8a2.981,2.981,0,0,0,2.23-1.026A7.425,7.425,0,0,0,8.795,45.3q-3.724-.679-3.719-4.881V37.585q0-5.465,5.446-5.465Zm0,8.878V36.666H11.983a3.2,3.2,0,0,0-1.965.368A1.99,1.99,0,0,0,9.6,38.451v.737a1.884,1.884,0,0,0,.447,1.389A2.265,2.265,0,0,0,11.665,41Zm2.868-18.28V17.782a2.956,2.956,0,0,0,1.783-.79,4.4,4.4,0,0,0,.928-2.232l.776-4.675h5.1l-.422,2.733H54.347v4.622h-6.91v4.7H42.444v-4.7H37.178a8.421,8.421,0,0,1-2.631,3.781A9.728,9.728,0,0,1,30.029,22.719Zm2.049,9.4H47.412c.886,0,1.454-.157,1.7-.472a2.08,2.08,0,0,0,.323-1.313v-.762a1.45,1.45,0,0,0-1.622-1.656H32.078Z"/><path class="cls-4" d="M113.83,15.415V10.557h10.922v4.858Zm0,11.56V22.114h3.8c2.131,0,3.545.236,4.257.708a4.986,4.986,0,0,1,1.515,1.524,6.183,6.183,0,0,1,.61,3.048V47.565a3.215,3.215,0,0,0,.346,1.892,2.538,2.538,0,0,0,1.754.419h2.553v4.8h-3.911a6.575,6.575,0,0,1-3.587-.68,5.7,5.7,0,0,1-1.619-1.763,5.19,5.19,0,0,1-.447-2.362V29.39a3.088,3.088,0,0,0-.4-1.918,2.206,2.206,0,0,0-1.729-.5ZM148.781,33.3v2.4h13.846v4.855H148.781V54.836h-4.917V40.551H130.735V35.7h13.129V33.3h-7.841a5.5,5.5,0,0,1-4.04-1.468q-1.379-1.371-1.38-5.544V15.415a4.934,4.934,0,0,1,1.434-3.753,6.272,6.272,0,0,1,4.493-1.445h19.162q3.348,0,4.841,1.471a4.811,4.811,0,0,1,1.431,3.6V26.4q0,3.517-.717,4.647-1.409,2.26-5.024,2.258ZM130.76,54.836V50.084a1.757,1.757,0,0,0,1.037-.762,20.982,20.982,0,0,0,.691-3.52l.3-2.915h4.99l-.371,3.154q-.582,5.28-2.415,7.141A5.838,5.838,0,0,1,130.76,54.836Zm4.866-35.373h8.237V15.156h-6.086a2.479,2.479,0,0,0-1.726.444,1.9,1.9,0,0,0-.425,1.366Zm8.237,8.9V24.321h-8.237v2.311A1.741,1.741,0,0,0,136.051,28a2.546,2.546,0,0,0,1.6.368Zm4.917-8.9h8.19V17.782a4.016,4.016,0,0,0-.374-2.1,1.578,1.578,0,0,0-1.411-.523h-6.4Zm0,8.9h6.061a2.382,2.382,0,0,0,1.754-.475,2.159,2.159,0,0,0,.374-1.5V24.321h-8.19Zm6.753,14.521h4.914l.374,3.312a24.545,24.545,0,0,0,.557,3.045,1.711,1.711,0,0,0,1.147.841v4.751a6.011,6.011,0,0,1-4.389-1.754,7.958,7.958,0,0,1-1.754-3.624,27.935,27.935,0,0,1-.531-3.6Z"/><path class="cls-4" d="M167.651,22.848V19.2q0-4.516,4.762-4.861V10.006h4.914v4.332h12.013V10.006h4.892v4.332h13.025V10.006h5v4.332q4.546.608,4.543,4.861v3.649h-4.968V20.484c0-.855-.551-1.285-1.647-1.285H174.432c-1.243,0-1.861.43-1.861,1.285v2.364Zm0,31.808V49.8h22.112V45.331H168.506V40.4h21.257V37.085h-15.6a4.838,4.838,0,0,1-3.424-1.234,4.254,4.254,0,0,1-1.38-3.205V28.367a4.7,4.7,0,0,1,1.274-3.548,4.789,4.789,0,0,1,3.531-1.313h35.432q5.634,0,5.634,4.861v4.279a4.226,4.226,0,0,1-1.378,3.126,4.436,4.436,0,0,1-3.222,1.313H194.683V40.4h21.341v4.934H194.683V49.8H216.8v4.861Zm8.215-22.511h33.011c.956,0,1.437-.61,1.437-1.839q0-1.94-1.65-1.94H176.054c-1.226,0-1.836.635-1.836,1.914C174.219,31.527,174.77,32.145,175.866,32.145Z"/><path class="cls-5" d="M94.03,17.048l8.639-6.84A24.655,24.655,0,0,0,90.392,2.45L87.949,13.2A13.76,13.76,0,0,1,94.03,17.048Z"/><path class="cls-6" d="M59.131,27.886a24.928,24.928,0,0,0,.433,3.354l10.709-2.6a13.936,13.936,0,0,1-.171-1.42,13.665,13.665,0,0,1,.89-5.763l-9.974-4.685A24.5,24.5,0,0,0,59.131,27.886Z"/><path class="cls-7" d="M108.618,24.847a24.684,24.684,0,0,0-4.673-13.025L95.3,18.662a13.782,13.782,0,0,1,2.338,6.8l11.005.09C108.639,25.318,108.632,25.084,108.618,24.847Z"/><path class="cls-8" d="M78.78,13.556a13.7,13.7,0,0,1,4.248-.958,14.008,14.008,0,0,1,2.919.14L88.392,1.991a24.824,24.824,0,0,0-14.447,1.66Z"/><path class="cls-9" d="M68,45.406l6.706-8.74a13.749,13.749,0,0,1-3.945-6.035L60.049,33.236A24.6,24.6,0,0,0,68,45.406Z"/><path class="cls-10" d="M108.633,27.605l-11.019-.088a13.743,13.743,0,0,1-2.442,6.761l8.519,6.97A24.585,24.585,0,0,0,108.633,27.605Z"/><path class="cls-11" d="M76.936,14.458,72.1,4.552a25.086,25.086,0,0,0-10.208,10.36L71.87,19.6A13.743,13.743,0,0,1,76.936,14.458Z"/><path class="cls-12" d="M76.341,37.912l-6.712,8.744a24.855,24.855,0,0,0,10.245,4.158l8.774-11.5a13.62,13.62,0,0,1-3.928.827A13.84,13.84,0,0,1,76.341,37.912Z"/><polygon class="cls-13" points="86.209 64.422 102.409 42.885 93.909 35.887 72.058 64.422 86.209 64.422"/></svg>