<svg id="图层_1" data-name="图层 1" xmlns="http://www.w3.org/2000/svg" viewBox="0 0 315.703 65.108"><defs><style>.cls-1,.cls-11{fill:#3e3a39;}.cls-2{fill:#ddda58;}.cls-3{fill:#d85586;}.cls-4{fill:#92b947;}.cls-5{fill:#e9b644;}.cls-6{fill:#83619f;}.cls-7{fill:#30b59f;}.cls-8{fill:#e8705a;}.cls-9{fill:#0d67a9;}.cls-10{fill:#2195b5;}.cls-11{font-size:39.5px;font-family:SourceHanSansCN-Regular-GBpc-EUC-H, Source Han Sans CN;letter-spacing:0.085em;}</style></defs><title>来自第九课堂</title><path class="cls-1" d="M100.663,22.273V17.336a2.9,2.9,0,0,0,1.785-.815,5.562,5.562,0,0,0,1.057-2.783l.638-4.071H109.2l-.374,2.7h16.213v4.622h-6.91v4.7h-4.945v-4.7h-5.311a9.043,9.043,0,0,1-2.634,3.731A9.562,9.562,0,0,1,100.663,22.273Zm22.2,9.4v-4.2H101.436V22.927h43.056a5.754,5.754,0,0,1,4.147,1.237,4.483,4.483,0,0,1,1.063,3.306v3.416q0,5.33-4.7,5.333H127.776v4.332h16.93a5.452,5.452,0,0,1,3.9,1.153,4.689,4.689,0,0,1,1.091,3.444v4.414a4.825,4.825,0,0,1-1.119,3.545q-1.278,1.282-4.912,1.282h-2.052v-4.54h1.49a2.089,2.089,0,0,0,1.622-.475,2.474,2.474,0,0,0,.4-1.6V46.723a1.875,1.875,0,0,0-.425-1.366,2.417,2.417,0,0,0-1.6-.34H127.776v9.373h-4.917V45.017H109.544a16.245,16.245,0,0,1-2.235,5.938,7.685,7.685,0,0,1-6.379,3.281v-4.8a2.981,2.981,0,0,0,2.23-1.026,7.425,7.425,0,0,0,1.333-3.548q-3.724-.679-3.719-4.881V37.139q0-5.465,5.446-5.465Zm0,8.878V36.22H107.68a3.2,3.2,0,0,0-1.965.368A1.99,1.99,0,0,0,105.293,38v.737a1.884,1.884,0,0,0,.447,1.389,2.265,2.265,0,0,0,1.622.422Zm2.868-18.28V17.336a2.956,2.956,0,0,0,1.783-.79,4.4,4.4,0,0,0,.928-2.232l.776-4.675h5.1l-.422,2.733h16.154v4.622h-6.91v4.7h-4.993v-4.7h-5.266a8.421,8.421,0,0,1-2.631,3.781A9.728,9.728,0,0,1,125.726,22.273Zm2.049,9.4h15.333c.886,0,1.454-.157,1.7-.472a2.08,2.08,0,0,0,.323-1.313v-.762a1.45,1.45,0,0,0-1.622-1.656H127.776Z"/><path class="cls-1" d="M209.528,14.969V10.111H220.45v4.858Zm0,11.56V21.668h3.8c2.131,0,3.545.236,4.257.708A4.986,4.986,0,0,1,219.1,23.9a6.183,6.183,0,0,1,.61,3.048V47.119a3.215,3.215,0,0,0,.346,1.892,2.538,2.538,0,0,0,1.754.419h2.553v4.8H220.45a6.575,6.575,0,0,1-3.587-.68,5.7,5.7,0,0,1-1.619-1.763,5.19,5.19,0,0,1-.447-2.362V28.944a3.088,3.088,0,0,0-.4-1.918,2.206,2.206,0,0,0-1.729-.5Zm34.951,6.326v2.4h13.846V40.1H244.479V54.389h-4.917V40.1H226.433V35.25h13.129v-2.4h-7.841a5.5,5.5,0,0,1-4.04-1.468q-1.379-1.371-1.38-5.544V14.969a4.934,4.934,0,0,1,1.434-3.753,6.272,6.272,0,0,1,4.493-1.445h19.162q3.348,0,4.841,1.471a4.811,4.811,0,0,1,1.431,3.6V25.95q0,3.517-.717,4.647-1.409,2.26-5.024,2.258ZM226.458,54.389V49.638a1.757,1.757,0,0,0,1.037-.762,20.982,20.982,0,0,0,.691-3.52l.3-2.915h4.99L233.1,45.6q-.582,5.28-2.415,7.141A5.838,5.838,0,0,1,226.458,54.389Zm4.866-35.373h8.237V14.71h-6.086a2.479,2.479,0,0,0-1.726.444,1.9,1.9,0,0,0-.425,1.366Zm8.237,8.9V23.875h-8.237v2.311a1.741,1.741,0,0,0,.425,1.366,2.546,2.546,0,0,0,1.6.368Zm4.917-8.9h8.19V17.336a4.016,4.016,0,0,0-.374-2.1,1.578,1.578,0,0,0-1.411-.523h-6.4Zm0,8.9h6.061a2.382,2.382,0,0,0,1.754-.475,2.159,2.159,0,0,0,.374-1.5V23.875h-8.19Zm6.753,14.521h4.914l.374,3.312a24.545,24.545,0,0,0,.557,3.045,1.711,1.711,0,0,0,1.147.841v4.751a6.011,6.011,0,0,1-4.389-1.754,7.958,7.958,0,0,1-1.754-3.624,27.935,27.935,0,0,1-.531-3.6Z"/><path class="cls-1" d="M263.349,22.4V18.753q0-4.516,4.762-4.861V9.56h4.914v4.332h12.013V9.56h4.892v4.332h13.025V9.56h5v4.332q4.546.608,4.543,4.861V22.4h-4.968V20.037c0-.855-.551-1.285-1.647-1.285H270.13c-1.243,0-1.861.43-1.861,1.285V22.4Zm0,31.808V49.349H285.46V44.884H264.2V39.95H285.46V36.639h-15.6a4.838,4.838,0,0,1-3.424-1.234,4.254,4.254,0,0,1-1.38-3.205V27.921a4.7,4.7,0,0,1,1.274-3.548,4.789,4.789,0,0,1,3.531-1.313h35.432q5.634,0,5.634,4.861V32.2a4.226,4.226,0,0,1-1.378,3.126,4.436,4.436,0,0,1-3.222,1.313H290.38V39.95h21.341v4.934H290.38v4.465h22.114V54.21ZM271.563,31.7h33.011c.956,0,1.437-.61,1.437-1.839q0-1.94-1.65-1.94H271.752c-1.226,0-1.836.635-1.836,1.914C269.916,31.081,270.467,31.7,271.563,31.7Z"/><path class="cls-2" d="M189.727,16.6l8.639-6.84A24.655,24.655,0,0,0,186.089,2l-2.443,10.749A13.76,13.76,0,0,1,189.727,16.6Z"/><path class="cls-3" d="M154.828,27.44a24.928,24.928,0,0,0,.433,3.354l10.709-2.6a13.936,13.936,0,0,1-.171-1.42,13.665,13.665,0,0,1,.89-5.763l-9.974-4.685A24.5,24.5,0,0,0,154.828,27.44Z"/><path class="cls-4" d="M204.316,24.4a24.684,24.684,0,0,0-4.673-13.025L191,18.216a13.782,13.782,0,0,1,2.338,6.8l11.005.09C204.337,24.872,204.329,24.637,204.316,24.4Z"/><path class="cls-5" d="M174.478,13.11a13.7,13.7,0,0,1,4.248-.958,14.008,14.008,0,0,1,2.919.14L184.09,1.545A24.824,24.824,0,0,0,169.643,3.2Z"/><path class="cls-6" d="M163.7,44.96l6.706-8.74a13.749,13.749,0,0,1-3.945-6.035L155.746,32.79A24.6,24.6,0,0,0,163.7,44.96Z"/><path class="cls-7" d="M204.331,27.159l-11.019-.088a13.743,13.743,0,0,1-2.442,6.761l8.519,6.97A24.585,24.585,0,0,0,204.331,27.159Z"/><path class="cls-8" d="M172.633,14.012,167.8,4.106a25.086,25.086,0,0,0-10.208,10.36l9.979,4.683A13.743,13.743,0,0,1,172.633,14.012Z"/><path class="cls-9" d="M172.038,37.466l-6.712,8.744a24.855,24.855,0,0,0,10.245,4.158l8.774-11.5a13.62,13.62,0,0,1-3.928.827A13.84,13.84,0,0,1,172.038,37.466Z"/><polygon class="cls-10" points="181.907 63.976 198.106 42.439 189.607 35.441 167.756 63.976 181.907 63.976"/><text class="cls-11" transform="translate(2.002 50.059)">来自</text></svg>