<svg xmlns="http://www.w3.org/2000/svg" viewBox="0 0 377.13 97.07"><defs><style>.cls-1{fill:#332926;}.cls-2{fill:#e8413d;}.cls-3{fill:none;stroke:#332926;stroke-miterlimit:10;stroke-width:1.73px;}</style></defs><title>LOGO 方案提案</title><g id="图层_3" data-name="图层 3"><path class="cls-1" d="M10.05,79.9a69.71,69.71,0,0,0,8-15.22l8.81,3.08c-1.39,3.22-3,7.09-4.71,10.57C17.34,79.13,10.05,79.9,10.05,79.9Z"/><rect class="cls-1" x="27.68" y="28.51" width="25.61" height="6.57"/><path class="cls-1" d="M57.86,78.07c4.16,0,4.82-1.16,5.32-9.48,2,1.41,6.32,2.66,9.06,3.16-1.25,11.14-4,13.88-13.72,13.88H42.81c-11.64,0-14.72-2.33-14.72-10.14v-12H38.15V75.41c0,2.33.83,2.66,5.65,2.66Z"/><path class="cls-1" d="M49.21,59.36A140.8,140.8,0,0,1,59.77,70.92L48.53,71c-2.19-2.67-4.9-5.66-7.14-8.11Z"/><path class="cls-1" d="M69.33,65.93l8.73-2.74a139.57,139.57,0,0,1,9,16s-5.87-.65-11.27-1C75.77,78.12,73.1,72.62,69.33,65.93Z"/><path class="cls-1" d="M25.68,15.45l-9.06-2.84V29.43c0,8.31-.67,20-6.9,28.27a36,36,0,0,1,7.32,6c7.23-9.48,8.65-24,8.65-34.09V24.77h0Z"/><path class="cls-1" d="M80.14,43.06c-.42,7.15-1.08,10.06-3.08,10.06S73,52,71.33,49.63A65.52,65.52,0,0,0,83.47,29.1L74.57,27a51.77,51.77,0,0,1-7.32,13.72,91,91,0,0,1-2.83-16H86V17H78.48l2.16-1.66a66.76,66.76,0,0,0-8.48-6.48l-5.82,4.07C67.92,14,69.75,15.54,71.49,17H63.93c0-1.41-.06-2.73-.06-4.22-4.24-1.38-9.33-3-9.33-3,0,2.66.09,4.67.25,7.24H27.59v7.82H55.28c.83,9.23,2.41,17.29,4.91,23.61A50.65,50.65,0,0,1,52.45,54V38.66H27.93V57.95H52.45V55a55.16,55.16,0,0,1,5.82,6,68.76,68.76,0,0,0,6.48-4.82,15.13,15.13,0,0,0,12,5.74c6.9,0,9.73-3,11-14.72A21.23,21.23,0,0,1,80.14,43.06ZM44.89,51.38H35.74V45.23h9.15Z"/><path class="cls-1" d="M170.9,69.92c-.33,6.24-.83,7.23-3.49,7.23h-9.23c-3.08,0-3.66-.33-3.66-2.49V64.52h-9.23a21.73,21.73,0,0,0,1-6.74V49.47H136v8.06c0,6.57-2.41,15.55-31.26,21.87A36.8,36.8,0,0,1,111.37,87c21.53-5.65,30.1-13.3,33.26-20.62v8.4c0,8.06,2.33,10.73,12.22,10.73h11.56c7.48,0,10.06-2.49,11.06-12.31A30.15,30.15,0,0,1,170.9,69.92Z"/><polygon class="cls-1" points="125.67 37.49 115.78 35.76 115.78 32.09 115.78 32.09 115.78 23.43 115.78 23.43 115.78 21.84 105.8 18.62 105.8 41.65 115.69 41.65 115.69 67.68 125.67 67.68 125.67 37.49"/><path class="cls-1" d="M166.91,20v3.43l-2.66,0c2.49-3.16,5.15-6.74,7.65-10.39L161.26,9.89a89,89,0,0,1-7.65,13.55H142l6.32-2.33a62.89,62.89,0,0,0-6.82-11.81l-8.65,2.91a66.57,66.57,0,0,1,5.9,11.22H124.34l3.91-1.83c-1.5-3.16-5.16-7.73-8.15-11l-8.56,3.74a55.58,55.58,0,0,1,6.57,9.06h-.41v8.65h49.22v5.4H127.55V46h29V68.09H167V41.65H177.3l0-18.22Z"/><path class="cls-1" d="M272,61.94V53.38H231.64c.66-1.25,1.41-2.41,2-3.66l-4.16-1h38.16V25.44l-9.87-2v2h-10V20.7H270.3V12.13H197.89V20.7h21.87v4.74H212.9v7.82h6.85V41H211V24.23l-9.21-3-.11,27.44h21.12c-.83,1.58-1.75,3.08-2.66,4.66H196.64v8.56h17.88A115,115,0,0,1,207.2,71c6.15,1.25,12.06,2.66,17.79,4.07-7.32,2-16.3,3-27.11,3.41A27.16,27.16,0,0,1,201.63,87c16-1.33,28.27-3.49,37.41-8,9.06,2.66,17,5.24,23.11,7.65L270,78.9c-5.82-2-13.14-4.32-21.29-6.48a38.07,38.07,0,0,0,7.57-10.48Zm-24.2-28.69h10V41h-10ZM229.06,20.7h9.4v4.74h-9.4Zm0,12.56h9.4V41h-9.4Zm8.73,36.25c-4.74-1.16-9.73-2.33-14.63-3.41a41.18,41.18,0,0,0,3-4.16h19.12A27,27,0,0,1,237.79,69.5Z"/><path class="cls-2" d="M311.09,28.68l-9.81-3.08c-1.66,8.31-5.16,17-9.65,22.78,0,0,10.32-1.29,13.67-1.81A91.67,91.67,0,0,0,311.09,28.68Z"/><path class="cls-2" d="M362.73,29.68l-10.89-4.07a126.06,126.06,0,0,1-9.23,23.53l11.59-1.53C357,42.24,360.1,35.67,362.73,29.68Z"/><path class="cls-2" d="M328.59,51.19c1.06-3.9,1.83-7.62,2.29-10.11h0c1.35-8.9,1.55-18.4,1.64-28-3.38-1-11.12-3.24-11.12-3.24-.17,29,1.58,55.62-32.68,68.76a29.59,29.59,0,0,1,7,8.4c15.85-6.45,24.87-16,30-27.28A68.76,68.76,0,0,0,328.59,51.19Z"/><path class="cls-2" d="M330.28,52.55a37.88,37.88,0,0,1-2.48,7.06c6.34,13.25,16,22.13,32,26.61a36.63,36.63,0,0,1,6.48-9.31c-19.08-4.25-29.18-15.47-34.32-32A69.86,69.86,0,0,1,330.28,52.55Z"/><rect class="cls-3" x="5.85" y="4.98" width="86.81" height="86.81"/><rect class="cls-3" x="98.72" y="4.98" width="86.81" height="86.81"/><rect class="cls-3" x="191.59" y="4.98" width="86.81" height="86.81"/><rect class="cls-3" x="284.46" y="4.98" width="86.81" height="86.81"/></g></svg>